<svg xmlns="http://www.w3.org/2000/svg" fill="none" viewBox="17.05 17.05 45.9 45.9"> 
<path d="M39.7521 17.0981C39.9114 17.0351 40.0886 17.0351 40.2479 17.0981L48.1856 20.2382L56.0188 23.6306C56.176 23.6987 56.3013 23.824 56.3694 23.9812L59.7618 31.8144L62.9019 39.7521C62.9649 39.9114 62.9649 40.0886 62.9019 40.2479L59.7618 48.1856L56.3694 56.0188C56.3013 56.176 56.176 56.3013 56.0188 56.3694L48.1856 59.7618L40.2479 62.9019C40.0886 62.9649 39.9114 62.9649 39.7521 62.9019L31.8144 59.7618L23.9812 56.3694C23.824 56.3013 23.6987 56.176 23.6306 56.0188L20.2382 48.1856L17.0981 40.2479C17.0351 40.0886 17.0351 39.9114 17.0981 39.7521L20.2382 31.8144L23.6306 23.9812C23.6987 23.824 23.824 23.6987 23.9812 23.6306L31.8144 20.2382L39.7521 17.0981Z" fill="#BEDEFF"></path>
<path d="M22.5519 40.2231C22.4512 40.0288 22.4512 39.7976 22.5519 39.6032L24.8641 35.139C24.8981 35.0735 24.921 35.0029 24.932 34.93L25.6854 29.9592C25.7182 29.7428 25.8541 29.5558 26.0498 29.4577L30.5445 27.2051C30.6104 27.1721 30.6704 27.1285 30.7222 27.076L34.2535 23.4974C34.4072 23.3415 34.6271 23.2701 34.843 23.3058L39.8034 24.1254C39.8761 24.1374 39.9503 24.1374 40.0231 24.1254L44.9834 23.3058C45.1993 23.2701 45.4192 23.3415 45.5729 23.4974L49.1042 27.076C49.156 27.1285 49.216 27.1721 49.2819 27.2051L53.7766 29.4577C53.9723 29.5558 54.1082 29.7428 54.141 29.9592L54.8944 34.93C54.9054 35.0029 54.9284 35.0735 54.9623 35.139L57.2745 39.6032C57.3752 39.7976 57.3752 40.0288 57.2745 40.2231L54.9623 44.6874C54.9284 44.7529 54.9054 44.8235 54.8944 44.8964L54.141 49.8672C54.1082 50.0836 53.9723 50.2706 53.7766 50.3687L49.2819 52.6212C49.216 52.6543 49.156 52.6979 49.1042 52.7504L45.5729 56.329C45.4192 56.4848 45.1994 56.5563 44.9834 56.5206L40.0231 55.701C39.9503 55.689 39.8761 55.689 39.8034 55.701L34.843 56.5206C34.6271 56.5563 34.4072 56.4848 34.2535 56.329L30.7222 52.7504C30.6704 52.6979 30.6104 52.6543 30.5445 52.6212L26.0498 50.3687C25.8541 50.2706 25.7182 50.0836 25.6854 49.8672L24.932 44.8964C24.921 44.8235 24.8981 44.7529 24.8641 44.6874L22.5519 40.2231Z" fill="#2351FF"></path>
<path d="M37.7117 44.9935L32.9183 40.2001L33.8791 39.2394L37.7117 43.072L45.9474 34.8364L46.9081 35.7972L37.7117 44.9935Z" fill="white"></path>
</svg>