<svg fill="none" xmlns="http://www.w3.org/2000/svg" viewBox="16.05 16.04 42.9 42.9"> <path d="M37.2683 16.08C37.4171 16.0211 37.5829 16.0211 37.7317 16.08L45.1518 19.0153L52.4741 22.1864C52.621 22.2501 52.7382 22.3673 52.8018 22.5142L55.973 29.8365L58.9083 37.2565C58.9672 37.4054 58.9672 37.5711 58.9083 37.72L55.973 45.14L52.8018 52.4624C52.7382 52.6093 52.621 52.7265 52.4741 52.7901L45.1518 55.9613L37.7317 58.8966C37.5829 58.9555 37.4171 58.9555 37.2683 58.8966L29.8482 55.9613L22.5259 52.7901C22.379 52.7265 22.2618 52.6093 22.1982 52.4624L19.027 45.14L16.0917 37.72C16.0328 37.5711 16.0328 37.4054 16.0917 37.2565L19.027 29.8365L22.1982 22.5142C22.2618 22.3673 22.379 22.2501 22.5259 22.1864L29.8482 19.0153L37.2683 16.08Z" fill="#D7FFED"></path> <path d="M21.1898 37.697C21.0957 37.5153 21.0957 37.2992 21.1898 37.1175L23.3513 32.9444C23.383 32.8832 23.4044 32.8172 23.4147 32.749L24.119 28.1024C24.1496 27.9001 24.2766 27.7253 24.4596 27.6336L28.6611 25.528C28.7228 25.4971 28.7789 25.4563 28.8273 25.4072L32.1283 22.062C32.272 21.9163 32.4775 21.8496 32.6794 21.8829L37.3162 22.649C37.3842 22.6603 37.4536 22.6603 37.5216 22.649L42.1584 21.8829C42.3603 21.8496 42.5658 21.9163 42.7095 22.062L46.0104 25.4072C46.0589 25.4563 46.115 25.4971 46.1766 25.528L50.3782 27.6336C50.5611 27.7253 50.6881 27.9001 50.7188 28.1024L51.423 32.749C51.4333 32.8172 51.4548 32.8832 51.4865 32.9444L53.648 37.1175C53.7421 37.2992 53.7421 37.5153 53.648 37.697L51.4865 41.8701C51.4548 41.9313 51.4333 41.9973 51.423 42.0654L50.7188 46.712C50.6881 46.9144 50.5611 47.0892 50.3782 47.1808L46.1766 49.2865C46.115 49.3174 46.0589 49.3582 46.0104 49.4072L42.7095 52.7525C42.5658 52.8981 42.3603 52.9649 42.1584 52.9315L37.5216 52.1654C37.4536 52.1542 37.3842 52.1542 37.3162 52.1654L32.6794 52.9315C32.4775 52.9649 32.272 52.8981 32.1283 52.7525L28.8273 49.4072C28.7789 49.3582 28.7228 49.3174 28.6611 49.2865L24.4596 47.1808C24.2766 47.0892 24.1496 46.9144 24.119 46.712L23.4147 42.0654C23.4044 41.9973 23.383 41.9313 23.3513 41.8701L21.1898 37.697Z" fill="#00CD73"></path> <path d="M30.0693 44.7568V43.3757L31.3292 42.1158V44.7568H30.0693ZM33.4291 44.7568V40.0159L34.689 38.756V44.7568H33.4291ZM36.7889 44.7568V38.756L38.0488 40.0369V44.7568H36.7889ZM40.1488 44.7568V40.0369L41.4086 38.777V44.7568H40.1488ZM43.5086 44.7568V36.6561L44.7685 35.3962V44.7568H43.5086ZM30.0693 40.1111V38.336L35.739 32.6663L39.0988 36.0261L44.7685 30.3564V32.1316L39.0988 37.8013L35.739 34.4415L30.0693 40.1111Z" fill="white"></path> </svg>