<svg width="128" height="41" viewBox="0 0 128 41" fill="none" xmlns="http://www.w3.org/2000/svg">
<g clip-path="url(#clip0_1554_563)">
<path d="M54.6032 27.9081V21.5644H59.242C62.5115 21.5644 65.3619 19.161 65.3619 16.0869C65.3619 12.957 62.5115 10.6095 59.242 10.6095H50.4675V27.9081H54.6032ZM59.242 14.1027C60.4437 14.1027 61.2261 15.0809 61.2261 16.0869C61.2261 17.2048 60.3319 18.0711 59.242 18.0711H54.6032V14.1027H59.242ZM71.2643 28.1317C72.8289 28.1317 74.1982 27.4051 75.1764 26.3152V27.9081H78.9767V15.3324H75.1764V16.8974C74.226 15.8354 72.8289 15.1368 71.2643 15.1368C67.6314 15.1368 64.9209 17.9314 64.9209 21.6203C64.9209 25.3091 67.6036 28.1317 71.2643 28.1317ZM71.9347 17.9873C73.8349 17.9873 75.1486 19.6081 75.1486 21.6203C75.1486 24.3031 73.22 25.2533 71.9347 25.2533C70.1742 25.2533 68.7493 23.6883 68.7493 21.6203C68.7493 19.6361 70.1742 17.9873 71.9347 17.9873ZM80.9139 11.3081C80.9139 12.4539 82.0596 13.4041 83.3727 13.4041C84.6864 13.4041 85.8043 12.426 85.8043 11.3081C85.8043 10.1903 84.6586 9.21216 83.3727 9.21216C82.0596 9.21216 80.9139 10.1903 80.9139 11.3081ZM81.4725 15.3324V27.9081H85.2728V15.3324H81.4725ZM87.9235 32.6311H91.7238V26.3432C92.6735 27.4051 94.0429 28.1038 95.6359 28.1038C99.2688 28.1038 101.979 25.3091 101.979 21.6203C101.979 17.9314 99.2966 15.1368 95.6359 15.1368C94.0713 15.1368 92.6735 15.8354 91.7238 16.9253V15.3324H87.9235V32.6311ZM91.7238 21.6203C91.7238 18.9375 93.6795 17.9873 94.9655 17.9873C96.726 17.9873 98.1509 19.5523 98.1509 21.6203C98.1509 23.6045 96.726 25.2533 94.9655 25.2533C93.0653 25.2533 91.7238 23.6324 91.7238 21.6203ZM102.868 21.6203C102.868 25.2533 105.83 28.1317 109.938 28.1317C113.235 28.1317 115.498 26.2314 116.449 23.8839L112.537 23.828C112.118 24.5267 111.14 25.0297 109.938 25.0297C108.037 25.0297 107.004 23.8 106.808 22.4866H116.812C117.427 18.5182 114.465 15.1088 109.938 15.1088C106.082 15.1088 102.868 18.0432 102.868 21.6203ZM106.947 20.3068C107.255 19.0213 108.289 17.9314 109.938 17.9314C111.503 17.9314 112.592 18.7697 112.956 20.3068H106.947ZM122.207 27.9081V21.6203C122.207 20.1391 123.576 18.9654 124.973 18.9654C125.364 18.9654 125.728 19.0492 126.091 19.2448L127.964 15.8075C127.517 15.5 126.762 15.3045 125.924 15.3045C124.582 15.3045 123.018 15.7795 122.207 16.9253V15.3324H118.407V27.9081H122.207Z" fill="#131313"/>
<rect width="40.2424" height="40.2424" rx="7.27273" fill="#2351FF"/>
<mask id="mask0_1554_563" style="mask-type:luminance" maskUnits="userSpaceOnUse" x="10" y="9" width="22" height="22">
<path d="M31.9985 9.41846H10.6665V30.7518H31.9985V9.41846Z" fill="white"/>
</mask>
<g mask="url(#mask0_1554_563)">
<path d="M31.9985 16.2333V23.937C31.9985 24.7551 31.3352 25.4185 30.5171 25.4185H28.1469C27.3288 25.4185 26.6655 26.0818 26.6655 26.8999V29.2703C26.6655 30.0885 26.0022 30.7518 25.1841 30.7518H22.8139C21.9958 30.7518 21.3325 30.0885 21.3325 29.2703V26.8999C21.3325 26.0818 21.9958 25.4185 22.8139 25.4185H25.1841C26.0022 25.4185 26.6655 24.7551 26.6655 23.937V16.2333C26.6655 15.4151 26.0022 14.7518 25.1841 14.7518H17.4809C16.6628 14.7518 15.9995 15.4151 15.9995 16.2333V29.2703C15.9995 30.0885 15.3362 30.7518 14.5181 30.7518H12.1479C11.3298 30.7518 10.6665 30.0885 10.6665 29.2703V10.8999C10.6665 10.0818 11.3298 9.41846 12.1479 9.41846H25.1841C26.0022 9.41846 26.6655 10.0818 26.6655 10.8999V13.2703C26.6655 14.0885 27.3288 14.7518 28.1469 14.7518H30.5171C31.3352 14.7518 31.9985 15.4151 31.9985 16.2333Z" fill="white"/>
</g>
</g>
<defs>
<clipPath id="clip0_1554_563">
<rect width="128" height="40.2424" fill="white"/>
</clipPath>
</defs>
</svg>
