<svg width="150" height="47" viewBox="0 0 150 47" fill="none" xmlns="http://www.w3.org/2000/svg">
<g clip-path="url(#clip0_1656_5304)">
<path d="M63.7724 32.5945V25.1855H69.1901C73.0086 25.1855 76.3376 22.3785 76.3376 18.7882C76.3376 15.1327 73.0086 12.391 69.1901 12.391H58.9422V32.5945H63.7724ZM69.1901 16.4708C70.5935 16.4708 71.5073 17.6132 71.5073 18.7882C71.5073 20.0938 70.4629 21.1056 69.1901 21.1056H63.7724V16.4708H69.1901ZM83.2312 32.8556C85.0585 32.8556 86.6578 32.007 87.8002 30.734V32.5945H92.2387V17.907H87.8002V19.7348C86.6902 18.4945 85.0585 17.6785 83.2312 17.6785C78.9883 17.6785 75.8225 20.9424 75.8225 25.2507C75.8225 29.559 78.9558 32.8556 83.2312 32.8556ZM84.0142 21.0077C86.2334 21.0077 87.7678 22.9007 87.7678 25.2507C87.7678 28.384 85.5153 29.4938 84.0142 29.4938C81.9581 29.4938 80.2938 27.666 80.2938 25.2507C80.2938 22.9333 81.9581 21.0077 84.0142 21.0077ZM94.5012 13.207C94.5012 14.5452 95.8392 15.6549 97.3728 15.6549C98.9071 15.6549 100.213 14.5125 100.213 13.207C100.213 11.9014 98.8747 10.759 97.3728 10.759C95.8392 10.759 94.5012 11.9014 94.5012 13.207ZM95.1536 17.907V32.5945H99.592V17.907H95.1536ZM102.688 38.1105H107.126V30.7667C108.235 32.007 109.835 32.823 111.695 32.823C115.938 32.823 119.104 29.559 119.104 25.2507C119.104 20.9424 115.971 17.6785 111.695 17.6785C109.868 17.6785 108.235 18.4945 107.126 19.7674V17.907H102.688V38.1105ZM107.126 25.2507C107.126 22.1174 109.41 21.0077 110.912 21.0077C112.968 21.0077 114.633 22.8355 114.633 25.2507C114.633 27.5681 112.968 29.4938 110.912 29.4938C108.693 29.4938 107.126 27.6007 107.126 25.2507ZM120.142 25.2507C120.142 29.4938 123.601 32.8556 128.399 32.8556C132.25 32.8556 134.893 30.6362 136.003 27.8945L131.434 27.8292C130.945 28.6452 129.802 29.2327 128.399 29.2327C126.179 29.2327 124.972 27.7965 124.743 26.2625H136.428C137.146 21.6278 133.686 17.6458 128.399 17.6458C123.895 17.6458 120.142 21.073 120.142 25.2507ZM124.906 23.7167C125.266 22.2153 126.473 20.9424 128.399 20.9424C130.227 20.9424 131.499 21.9215 131.923 23.7167H124.906ZM142.728 32.5945V25.2507C142.728 23.5208 144.327 22.15 145.959 22.15C146.416 22.15 146.84 22.248 147.265 22.4764L149.451 18.4619C148.93 18.1028 148.048 17.8744 147.069 17.8744C145.502 17.8744 143.675 18.4292 142.728 19.7674V17.907H138.29V32.5945H142.728Z" fill="white"/>
<rect width="47" height="47" rx="8.49398" fill="#2351FF"/>
<mask id="mask0_1656_5304" style="mask-type:luminance" maskUnits="userSpaceOnUse" x="12" y="10" width="26" height="26">
<path d="M37.3719 10.759H12.4578V35.6747H37.3719V10.759Z" fill="white"/>
</mask>
<g mask="url(#mask0_1656_5304)">
<path d="M37.3719 18.7182V27.7155C37.3719 28.6711 36.5973 29.4458 35.6418 29.4458H32.8735C31.9181 29.4458 31.1434 30.2205 31.1434 31.176V33.9445C31.1434 34.9 30.3687 35.6747 29.4133 35.6747H26.645C25.6896 35.6747 24.9149 34.9 24.9149 33.9445V31.176C24.9149 30.2205 25.6896 29.4458 26.645 29.4458H29.4133C30.3687 29.4458 31.1434 28.6711 31.1434 27.7155V18.7182C31.1434 17.7627 30.3687 16.9879 29.4133 16.9879H20.4165C19.461 16.9879 18.6864 17.7627 18.6864 18.7182V33.9445C18.6864 34.9 17.9117 35.6747 16.9562 35.6747H14.188C13.2325 35.6747 12.4578 34.9 12.4578 33.9445V12.4893C12.4578 11.5338 13.2325 10.759 14.188 10.759H29.4133C30.3687 10.759 31.1434 11.5338 31.1434 12.4893V15.2577C31.1434 16.2132 31.9181 16.9879 32.8735 16.9879H35.6418C36.5973 16.9879 37.3719 17.7627 37.3719 18.7182Z" fill="white"/>
</g>
</g>
<defs>
<clipPath id="clip0_1656_5304">
<rect width="149.494" height="47" fill="white"/>
</clipPath>
</defs>
</svg>
